<?xml version="1.0" encoding="UTF-8"?>
<svg id="OBJECTS" xmlns="http://www.w3.org/2000/svg" viewBox="0 0 500 500">
  <defs>
    <style>
      .cls-1 {
        fill: none;
        stroke: #373d4d;
        stroke-linecap: round;
        stroke-linejoin: round;
        stroke-width: 3.18px;
      }
    </style>
  </defs>
  <path class="cls-1" d="m176.35,105.33c15.16-14.85,15.25-34.33,7.17-56.32-5.64,13.24-12.51,23.62-23.04,25.43,0,0-31.75-12.63-54.96,9.56l-6.32,14.51-19.29,10.07,1.71,11.95s.68,14.34,3.93,17.24c0,0,6.32,11.09,12.46,12.12,6.14,1.02,25.09-4.78,37.21,10.41"/>
  <path class="cls-1" d="m183.52,49.01s17.24,21.68,15.19,43.35c0,0,22.36,27.48,20.14,63.49,0,0,20.31,27.82,18.26,52.4"/>
  <path class="cls-1" d="m117.17,150.1l6.27,12.07-6.83,38.57-9.2,18.53c-4.51,9.09-3.55,19.95,2.5,28.1l13.53,18.23,30.64,48.44"/>
  <path class="cls-1" d="m137.1,260.31l7.11,13.93c6.55,12.84,9.96,27.04,9.96,41.45v92.43l-2.69,1.56c-9.9,5.72-17.28,14.97-20.63,25.91h0c-.74,2.43,1.07,4.88,3.61,4.88h32.47c9.43,0,17.71-6.25,20.3-15.31l14.74-51.51"/>
  <path class="cls-1" d="m396.53,392.07s7.51,26.63-18.09,33.11c-25.6,6.49-134.15-8.53-147.81-46.77-13.65-38.23,25.69-78.05,10.92-89.78-11.61-9.22-52.91,60.76-33.79,102.07,19.12,41.3,55.98,56.32,94.9,58.37,38.91,2.05,93.53,6.14,113.67-11.61,20.14-17.75,6.83-70.32-2.73-78.85,0,0,3.98-153.59-183.54-182.96"/>
  <path class="cls-1" d="m387.31,309.46s-75.78-53.04-123.57,3.86c-47.79,56.9,2.93,94.55,2.93,94.55"/>
  <path class="cls-1" d="m229.45,421.23h0c-5.5,4.21-8.72,10.74-8.72,17.66v1.56h39.48"/>
  <path class="cls-1" d="m230.17,293.29h0c5.6-15.38,5.73-32.21.38-47.67l-4.69-13.56"/>
  <path class="cls-1" d="m158.77,160.29l5.94-2.31c16.25-6.33,28.18-20.46,31.69-37.54h0"/>
  <path class="cls-1" d="m136.98,287l6.6,116.68-3.94.81c-10.57,2.17-19.82,8.53-25.63,17.62l-6.4,10.01c-2.31,3.61.29,8.34,4.57,8.34h20.41"/>
</svg>